<svg xmlns="http://www.w3.org/2000/svg" xmlns:xlink="http://www.w3.org/1999/xlink" width="38" height="38" version="1.1" viewBox="0 0 38 38"><title>eat</title><desc>Created with Sketch.</desc><g id="eat" fill="none" fill-rule="evenodd" stroke="none" stroke-width="1"><g id="Group-2-Copy"><g id="Group-2-Copy-15"><circle id="Oval" cx="19" cy="19" r="19" fill="#FDA42D"/><circle id="Oval-Copy" cx="19" cy="19" r="16" fill="#FFFDF5"/></g><path id="Combined-Shape" fill="#FDA42D" d="M23.9398496,10 L23.9398496,29 L21.6842105,29 L21.6842105,10 L23.9398496,10 Z M28,10 L28,29 L25.7443609,29 L25.7443609,10 L28,10 Z M14.7894737,10 C17.9869117,10 20.5789474,12.5992358 20.5789474,15.8055556 C20.5789474,18.0612639 19.2960462,20.0165024 17.4219889,20.9776043 L17.4210526,29 L15.3157895,29 L15.3156562,21.587456 C15.142351,21.6031127 14.9668438,21.6111111 14.7894737,21.6111111 C14.6121035,21.6111111 14.4365963,21.6031127 14.2632912,21.587456 L14.2631579,29 L12.1578947,29 L12.1569585,20.9776043 C10.2829012,20.0165024 9,18.0612639 9,15.8055556 C9,12.5992358 11.5920357,10 14.7894737,10 Z M14.7894737,12.1111111 C12.7547404,12.1111111 11.1052632,13.7651702 11.1052632,15.8055556 C11.1052632,17.8459409 12.7547404,19.5 14.7894737,19.5 C16.824207,19.5 18.4736842,17.8459409 18.4736842,15.8055556 C18.4736842,13.7651702 16.824207,12.1111111 14.7894737,12.1111111 Z"/></g></g></svg>